Coordinates
version=1
nRows=8
nColumns=40
inDegrees=yes

Units are S.I. units (second, meters, Newtons, ...)
Angles are in degrees.

endheader
time	pelvis_tilt	pelvis_list	pelvis_rotation	pelvis_tx	pelvis_ty	pelvis_tz	hip_flexion_r	hip_adduction_r	hip_rotation_r	knee_angle_r	knee_angle_r_beta	ankle_angle_r	subtalar_angle_r	mtp_angle_r	hip_flexion_l	hip_adduction_l	hip_rotation_l	knee_angle_l	knee_angle_l_beta	ankle_angle_l	subtalar_angle_l	mtp_angle_l	lumbar_extension	lumbar_bending	lumbar_rotation	arm_flex_r	arm_add_r	arm_rot_r	elbow_flex_r	pro_sup_r	wrist_flex_r	wrist_dev_r	arm_flex_l	arm_add_l	arm_rot_l	elbow_flex_l	pro_sup_l	wrist_flex_l	wrist_dev_l
     12.89500000	     -5.65402216	     -6.09722202	      5.02728681	      1.05962656	      0.90884861	      0.48527878	     -3.83612606	      4.79679187	    -17.77630914	      8.74782879	      8.74782879	     18.97960443	      3.90188706	     -3.32119171	     35.61331368	     -7.57465531	     -0.94905175	     17.24151698	     17.24151698	      4.04527903	     -7.96529959	      8.44596118	     -8.62182307	      7.13082602	      3.77887476	     51.83587005	    -16.66173349	     -3.27409287	    103.86562934	     44.20933430	      0.00000000	      0.00000000	    -21.40555831	     -8.06208377	      7.15123748	     21.44962721	     44.73733000	      0.00000000	      0.00000000
     12.90607143	     -5.74405380	     -5.97715953	      4.89048922	      1.06123150	      0.90713342	      0.48307874	     -4.29325955	      4.47020819	    -17.53469684	      9.17135917	      9.17135917	     19.51292390	      3.75757088	     -3.14801169	     35.69954533	     -7.37949373	     -1.21780424	     18.30713884	     18.30713884	      3.01085015	     -9.33457671	      7.92578405	     -8.31259608	      7.03680543	      3.60200167	     52.41232028	    -16.21712698	     -2.95162092	    105.50778119	     44.16519810	      0.00000000	      0.00000000	    -22.08867501	     -7.80414305	      7.33047179	     21.17049183	     44.70645278	      0.00000000	      0.00000000
     12.91714286	     -5.74040431	     -5.70524558	      4.67036757	      1.06302202	      0.90578887	      0.48087460	     -4.94097704	      3.98392033	    -17.25389379	      9.45750111	      9.45750111	     19.91749194	      3.70429793	     -3.09822446	     35.63512215	     -7.15972741	     -1.69640001	     19.52764551	     19.52764551	      2.22711490	    -10.32561631	      7.72226065	     -8.08494377	      6.69891761	      3.67397104	     52.79150510	    -16.05904549	     -2.85814850	    106.26754671	     44.14564102	      0.00000000	      0.00000000	    -22.53227805	     -7.64077189	      7.39691699	     20.98782288	     44.69153624	      0.00000000	      0.00000000
     12.92821429	     -5.80050691	     -5.53622407	      4.45324202	      1.06473841	      0.90438336	      0.47856512	     -5.19086653	      3.49880156	    -16.93424287	     10.38326327	     10.38326327	     20.66049607	      3.45657422	     -2.31481703	     35.61464705	     -6.92568263	     -1.52748444	     20.69941926	     20.69941926	      0.76171207	    -12.19251224	      6.13349230	     -7.88296164	      6.54059541	      3.79003135	     52.73210854	    -16.02337677	     -2.54434338	    108.75768640	     44.09444068	      0.00000000	      0.00000000	    -22.75225747	     -7.46151545	      7.68396552	     20.77802585	     44.67414999	      0.00000000	      0.00000000
     12.93928571	     -5.70632792	     -5.31140262	      4.18437108	      1.06665043	      0.90349171	      0.47631479	     -5.80324833	      3.00354115	    -16.62954151	     10.90309264	     10.90309264	     20.94447989	      3.40158358	     -2.32469958	     35.50860840	     -6.79882630	     -1.74895851	     22.17737243	     22.17737243	      0.37896910	    -13.02425565	      5.86872833	     -7.75374864	      6.26898405	      3.83709464	     52.80479061	    -15.80060911	     -2.48137426	    109.30021540	     44.08126998	      0.00000000	      0.00000000	    -22.89197369	     -7.28929324	      7.74882689	     20.67718277	     44.66567894	      0.00000000	      0.00000000
     12.95035714	     -5.74901237	     -5.13275524	      3.89455865	      1.06830027	      0.90258107	      0.47399192	     -5.81696222	      2.41603894	    -16.22209879	     12.26094751	     12.26094751	     21.39793950	      2.91084397	     -2.07780526	     35.55996489	     -6.64107584	     -1.62836616	     23.63891924	     23.63891924	     -0.06960258	    -14.19672911	      5.21044152	     -7.59635678	      6.09750177	      4.00528734	     52.43774622	    -15.73177752	     -2.41438020	    111.33287154	     44.05009382	      0.00000000	      0.00000000	    -22.74900683	     -7.11199945	      8.00511009	     20.47131715	     44.66276268	      0.00000000	      0.00000000
     12.96142857	     -5.57783905	     -4.94853965	      3.61664031	      1.07012490	      0.90236193	      0.47167778	     -6.18114699	      1.86177419	    -15.89635154	     13.35656062	     13.35656062	     21.48278611	      2.63780068	     -2.24613515	     35.33274717	     -6.52640090	     -1.60626713	     25.07853495	     25.07853495	      0.09713750	    -14.90342049	      4.93415654	     -7.61057833	      5.87711822	      3.94110208	     52.07278535	    -15.43387730	     -2.27992267	    111.92733245	     44.03244527	      0.00000000	      0.00000000	    -22.60122974	     -6.94815162	      8.07578016	     20.45172338	     44.66053065	      0.00000000	      0.00000000
     12.97250000	     -5.62032330	     -4.73173057	      3.30404900	      1.07157896	      0.90209669	      0.46926220	     -5.77459809	      1.11908552	    -15.41604127	     15.42678637	     15.42678637	     21.53292629	      1.75644247	     -2.80234515	     35.30325162	     -6.33808815	     -1.56029107	     26.43305399	     26.43305399	      0.52019280	    -15.55306967	      4.84563236	     -7.46536979	      5.67557965	      3.88917626	     51.44896767	    -15.14977122	     -2.11263014	    113.29570992	     43.99646067	      0.00000000	      0.00000000	    -22.24180739	     -6.73727315	      8.19114250	     20.44240880	     44.66348696	      0.00000000	      0.00000000
